<?xml version="1.0" encoding="UTF-8"?> <svg xmlns="http://www.w3.org/2000/svg" width="122" height="122" viewBox="0 0 122 122" fill="none"> <path d="M120.376 67.3281C121.29 66.578 121.797 65.5465 121.899 64.3274C122 61.8894 120.072 59.9202 117.433 59.7327C116.216 59.6389 114.998 60.1077 114.085 60.7641L29.0458 103.805C27.1177 104.555 25.3926 105.868 24.2763 107.65C21.3334 112.151 22.9571 117.965 27.9295 120.684C31.3798 122.559 35.5404 122.372 38.7877 120.496C38.9907 120.309 39.2951 120.215 39.4981 120.028L118.651 68.6409C119.057 68.3596 120.173 67.6094 120.376 67.3281Z" fill="url(#paint0_linear)"></path> <path d="M120.579 61.0451L55.8361 2.34428C54.4154 0.937713 52.3859 0 50.0519 0C45.6883 0 42.238 3.282 42.238 7.22039C42.238 9.18959 43.0499 10.8775 44.3691 12.1903C44.775 12.5654 45.1809 12.8467 45.5868 13.128L113.983 67.234C114.795 67.8904 115.81 68.3593 117.028 68.4531C119.666 68.5468 121.797 66.7652 122 64.3271C122 63.1081 121.493 61.8891 120.579 61.0451Z" fill="url(#paint1_linear)"></path> <path d="M57.9671 55.7939C57.8656 55.7939 17.9846 26.7248 17.1728 26.2559C16.5639 25.9746 15.9551 25.6933 15.3462 25.412C9.46045 23.349 2.96583 26.1622 0.733305 31.6009C-1.19478 36.3833 0.936262 41.6344 5.40131 44.1663C6.11166 44.5414 6.72053 44.8227 7.43088 45.0102C7.83679 45.1978 53.5021 62.6392 53.5021 62.6392C55.3287 63.3894 57.4597 62.9205 58.6775 61.514C60.1996 59.7323 59.8952 57.2005 57.9671 55.7939Z" fill="url(#paint2_linear)"></path> <path d="M50.0518 0C48.3267 0 46.703 0.562628 45.3838 1.40657L4.99542 26.5373C4.89394 26.6311 4.79246 26.6311 4.79246 26.7248H4.69098C2.96585 27.8501 1.54515 29.538 0.733326 31.5072C-1.4992 36.9459 1.54515 43.041 7.4309 45.0102C11.0841 46.323 15.0418 45.6666 17.9847 43.6974C18.695 43.2286 19.3039 42.7597 19.8113 42.1971L54.9228 12.9404C56.7494 11.6276 57.9671 9.56467 57.9671 7.22039C57.9671 3.282 54.4154 0 50.0518 0Z" fill="url(#paint3_linear)"></path> <path d="M35.1345 35.0703H86.8885V82.8937H35.1345V35.0703Z" fill="black"></path> <path d="M39.5996 73.8916H58.982V76.8923H39.5996V73.8916Z" fill="white"></path> <path d="M39.3966 47.636L40.9188 46.3232C41.3247 46.7921 41.7306 47.0734 42.238 47.0734C42.8469 47.0734 43.1513 46.6983 43.1513 45.9482V40.9783H45.4853V45.9482C45.4853 46.8859 45.1809 47.636 44.6735 48.1049C44.1661 48.5737 43.3543 48.8551 42.3395 48.8551C40.8173 48.9488 40.0055 48.3862 39.3966 47.636Z" fill="white"></path> <path d="M45.9927 41.0723H52.7917V42.8539H48.3267V44.0729H52.3858V45.7608H48.3267V46.9799H52.8932V48.8553H46.0942L45.9927 41.0723Z" fill="white"></path> <path d="M55.8362 42.9477H53.2992V41.0723H60.7071V42.9477H58.1702V48.8553H55.8362V42.9477Z" fill="white"></path> <path d="M39.5996 50.6367H43.9632C44.978 50.6367 45.7898 50.918 46.2972 51.2931C46.6016 51.5744 46.8046 52.0433 46.8046 52.6059C46.8046 53.5436 46.2972 54.0125 45.4854 54.3876C46.5001 54.6689 47.109 55.2315 47.109 56.263C47.109 57.5758 45.8913 58.4197 43.9632 58.4197H39.5996V50.6367ZM44.4706 53.0748C44.4706 52.6059 44.0647 52.4184 43.4558 52.4184H41.9336V53.8249H43.3543C44.0647 53.7312 44.4706 53.5436 44.4706 53.0748ZM43.6587 55.3253H41.8321V56.7319H43.6587C44.3691 56.7319 44.775 56.4505 44.775 55.9817C44.775 55.5128 44.3691 55.3253 43.6587 55.3253Z" fill="white"></path> <path d="M47.5149 50.6367H51.4726C52.7918 50.6367 53.6036 50.918 54.2125 51.4807C54.7199 51.9495 54.9228 52.5121 54.9228 53.2623C54.9228 54.4813 54.2125 55.2315 53.1977 55.7004L55.2273 58.4197H52.5888L50.8637 56.0755H49.8489V58.4197H47.5149V50.6367ZM51.3711 54.3876C52.1829 54.3876 52.5888 54.0125 52.5888 53.4499C52.5888 52.7935 52.0814 52.5121 51.3711 52.5121H49.8489V54.3876H51.3711Z" fill="white"></path> <path d="M57.6627 50.6367H59.8953L63.447 58.5135H60.9101L60.3012 57.1069H57.0539L56.445 58.5135H54.0095L57.6627 50.6367ZM59.6923 55.3253L58.779 53.1685L57.8657 55.3253H59.6923Z" fill="white"></path> <path d="M63.7515 50.6367H66.0855V58.4197H63.7515V50.6367Z" fill="white"></path> <path d="M66.6943 50.6367H68.8254L72.2756 54.7627V50.6367H74.6097V58.4197H72.5801L69.0283 54.2V58.5135H66.6943V50.6367Z" fill="white"></path> <path d="M74.8126 57.295L76.1318 55.8884C76.9437 56.5448 77.857 56.8261 78.8718 56.8261C79.4806 56.8261 79.8865 56.6386 79.8865 56.2635C79.8865 55.8884 79.5821 55.7947 78.4659 55.5133C76.6392 55.1383 75.32 54.6694 75.32 53.0753C75.32 51.6687 76.5378 50.5435 78.5673 50.5435C79.988 50.5435 81.1043 50.9185 82.0176 51.5749L80.7998 53.0753C79.988 52.6064 79.1762 52.3251 78.4659 52.3251C77.857 52.3251 77.654 52.5127 77.654 52.794C77.654 53.1691 77.9585 53.2628 79.0747 53.5441C81.0028 53.9192 82.2205 54.4819 82.2205 55.9822C82.2205 57.5763 80.9013 58.514 78.7703 58.514C77.2481 58.6078 75.8274 58.1389 74.8126 57.295Z" fill="white"></path> <defs> <linearGradient id="paint0_linear" x1="32.3347" y1="113.049" x2="108.416" y2="63.3558" gradientUnits="userSpaceOnUse"> <stop stop-color="#FCEE39"></stop> <stop offset="1" stop-color="#F37B3D"></stop> </linearGradient> <linearGradient id="paint1_linear" x1="49.099" y1="6.47772" x2="116.695" y2="70.5204" gradientUnits="userSpaceOnUse"> <stop stop-color="#EF5A6B"></stop> <stop offset="0.57" stop-color="#F26F4E"></stop> <stop offset="1" stop-color="#F37B3D"></stop> </linearGradient> <linearGradient id="paint2_linear" x1="53.7527" y1="59.677" x2="12.6886" y2="31.9241" gradientUnits="userSpaceOnUse"> <stop stop-color="#7C59A4"></stop> <stop offset="0.385" stop-color="#AF4C92"></stop> <stop offset="0.765" stop-color="#DC4183"></stop> <stop offset="0.957" stop-color="#ED3D7D"></stop> </linearGradient> <linearGradient id="paint3_linear" x1="52.9683" y1="3.47142" x2="13.6797" y2="38.5871" gradientUnits="userSpaceOnUse"> <stop stop-color="#EF5A6B"></stop> <stop offset="0.364" stop-color="#EE4E72"></stop> <stop offset="1" stop-color="#ED3D7D"></stop> </linearGradient> </defs> </svg> 